<svg id="Capa_1" data-name="Capa 1" xmlns="http://www.w3.org/2000/svg" viewBox="0 0 718.16 210.11"><defs><style>.cls-1{fill:#fff;}.cls-2{fill:#fccd8b;}.cls-3{fill:#1d1d1b;}.cls-4{fill:#e62b32;}.cls-5{fill:#575656;}.cls-6{fill:#e30613;}.cls-7{fill:#efbe35;}.cls-8{fill:#009fe3;}</style></defs><path class="cls-1" d="M310.76,98a47.46,47.46,0,0,0,33.3-13.3l-8-7.6a37.3,37.3,0,0,1-25.3,10.3c-24.3,0-35.5-17-35.7-35.2-.1-18.5,11.4-36.1,35.7-36.1a34.38,34.38,0,0,1,18.6,4.9l.4,13.9h10c.1-6.3.3-12.7.3-19a46.54,46.54,0,0,0-29.2-10.4c-31.6,0-47.1,23.2-46.9,46.9S279.06,98,310.76,98Z"/><path class="cls-1" d="M388.46,86.5h-11.6V17.1h11.3V6.8h-33.6V17.1h11.2V86.5h-11.4V96.8h34.2V86.5Z"/><path class="cls-1" d="M412.66,86.6h-10.8V96.7H435V86.6h-11.2V28.1l55.3,68.6h7.7V17.1h10.8V6.8h-33V17.1h11.2V75.8l-55.1-69h-19.2V17.1h11.2Z"/><polygon class="cls-1" points="585.26 72.4 575.26 72.4 574.86 86.2 532.16 86.2 532.16 56.1 573.06 56.1 573.06 45.7 532.16 45.7 532.16 17.1 572.96 17.1 573.36 30.7 583.36 30.7 583.36 6.8 510.16 6.8 510.16 17 521.06 17 521.06 86.5 509.86 86.5 509.86 96.7 585.26 96.7 585.26 72.4"/><path class="cls-1" d="M315.06,116.3h-51v10.3h11.2V196h-10.8v10.1h33.1V196h-11.3V175.1h28.8C356.36,175,356.36,116.3,315.06,116.3Zm0,48.9h-28.8V126.5h28.8C341.46,126.5,341.46,165.2,315.06,165.2Z"/><path class="cls-1" d="M508.46,195.9H470V126.5h10.7V116.2h-33v10.3h11.2V196h-10.8v10.1h70.8V182h-10Z"/><path class="cls-1" d="M581.66,116.3h-27.8v10.1h10.4l-9.5,20.6-22.1,48.9H524v10.3h31.7V195.9h-10.9c2.4-5.6,5-11.2,7.1-15.9H598c2.2,4.9,4.4,10.4,6.9,15.9h-11.2v10.3h31.9V195.9h-8.7ZM556.26,170c5.4-12.3,11.3-25.2,19.1-42.8,7.5,17.2,12.7,30.2,18.1,42.8Z"/><path class="cls-1" d="M706,195.8l-19.8-24.3c17-.9,28.3-10.8,28.3-28-.1-18-13-27.2-30.4-27.2h-50.6v10.3h11.2v69.2h-11v10.4h34.9V195.8h-12.8v-24h17.8l19.7,24.9v9.5h24.9V195.8Zm-50.2-33.7V126.5h28.3c11.4,0,19.3,6.4,19.3,17.4s-6,18.2-19.4,18.2Z"/><path class="cls-1" d="M220.46,3.6V206.2c0,4.8,7.5,4.8,7.5,0V3.6C228-1.2,220.46-1.2,220.46,3.6Z"/><path class="cls-2" d="M164.16,16.8H55.66v29L62,44.6l.5-.1h0l4.2-.8,16.9-3.2,9-1.7a2.61,2.61,0,0,1,3.1,1.7l.5,2.8,3.7,19.6a2.68,2.68,0,0,1-1.8,3.1h-.2c-3.6.9-7.4,1.4-11,2.1l-12,2.3h0l-19.3,3.7v3.6h42.9a2.48,2.48,0,0,1,2.5,2.5V88a13.39,13.39,0,0,1,4.7-1.4,11.56,11.56,0,0,1,6.8,1.5,16.89,16.89,0,0,1,4.9,4.3c4.9-.8,9.9.4,13.2,4.4a18.3,18.3,0,0,1,3.2,5.8,17.31,17.31,0,0,1,8.6,2.3,10.87,10.87,0,0,1,4.6,7.2h30.1V16.9h-2.7ZM139.66,65l-4.1,2.6-28.3,17.9a2.12,2.12,0,0,1-2.7-.2,2.22,2.22,0,0,1-1-2V44.4a2.56,2.56,0,0,1,2.6-2.5,2.66,2.66,0,0,1,1.2.3l4,2.3,28.4,16.2a2.47,2.47,0,0,1,.8,3.5A2.36,2.36,0,0,1,139.66,65Z"/><path class="cls-3" d="M182.26,14.3a2.48,2.48,0,0,0-2.5-2.5h-111c-5.1,0-10.2-.2-15.4,0h-.2a2.48,2.48,0,0,0-2.5,2.5V46.7l-7.2,1.4h0l-6.4,1.2-5.5,1-18.5,3.6c-3.6.7-7.4,1.2-11,2.1h-.2a2.62,2.62,0,0,0-1.8,3.1c1.2,6.5,2.5,13,3.7,19.6l.1.7a2.92,2.92,0,0,0-.2.9v65.9a2.48,2.48,0,0,0,2.5,2.5h49.6l5.8,33.7,1.4,8.1a2.46,2.46,0,0,0,2.4,1.8h67.9a2.46,2.46,0,0,0,1.5-.5,2,2,0,0,0,.9-1.3l3.3-22.2,5.2-35.5,1.2-8.2a2.44,2.44,0,0,0,0-1.2,26.64,26.64,0,0,0,1.7-6.3h17c5.1,0,10.2.2,15.4,0h.2a2.34,2.34,0,0,0,1.7-.7l.1-.1h0a2.19,2.19,0,0,0,.7-1.7v-88c0-4.1.2-8.1,0-12.2Zm-136.6,40,.4-1.6,13.3-2.5-6,17.7-.5,1.6-12.1,2.3Zm44.5-10,1.1-.2c1.1,5.8,2.2,11.5,3.3,17.3v.2l-6.7,1.3-10.1,1.9,4.9-17.5.4-1.6ZM72.66,64.2l-.4,1.6-13.7,2.6,6-17.7.6-1.6,12.6-2.4ZM38.06,77.4,50.66,75v2.7H36.56l1.4-.3h.1Zm2.6-23.7-5,17.5-.5,1.6-13.7,2.6,6-17.7.6-1.6Zm-28.5,5.4,10.2-1.9-6,17.7c-.2.6-.4,1.1-.6,1.6l-6,1.1c-.4.1-.7.1-1.1.2-1.1-5.8-2.2-11.5-3.3-17.3v-.2Zm28.5,84.5H8.76V83l1.4-.3h85.9V88a13.43,13.43,0,0,0-2.7-.7c-5.3-.9-9.7,1.4-13,5.2a19.37,19.37,0,0,0-6.8.2,12.23,12.23,0,0,0-9.4,8.8c-6.4.5-12.9,4.1-14.1,10.8a20.92,20.92,0,0,0,1.7,11.6v.7c1.1,6.4,2.2,12.7,3.3,19Zm101.6-27.2v.2c0,.2-.1.4-.1.6-.1.4-.1.8-.2,1.2-.2.7-.4,1.3-.6,2,0,.1-.1.3-.1.4H65.06c-3.1,0-6.1-.1-9.2,0a17.57,17.57,0,0,1-1-6.8v-.4a2.54,2.54,0,0,1,.2-.7c.1-.2.1-.5.2-.8s.1-.2.1-.4h0c.2-.4.4-.9.6-1.3.1-.1.2-.3.3-.4l.3-.3a9,9,0,0,1,1-.9l.2-.1.6-.4a10.91,10.91,0,0,1,1.1-.6l.2-.1.5-.2a15.46,15.46,0,0,1,2.3-.7c.3-.1.7-.1,1-.2l.5-.1a16.2,16.2,0,0,1,2.2-.1,2.58,2.58,0,0,0,2.4-1.8,11.54,11.54,0,0,1,1-3.3c.2-.4.5-.8.7-1.2l.4-.4.5-.5.2-.2.1-.1.6-.3a4.67,4.67,0,0,1,1-.5l.4-.2c.2-.1.4-.1.6-.2.4-.1.8-.2,1.3-.3h1.9a13.4,13.4,0,0,1,2,.1h.3l.6.1.5.1a2.48,2.48,0,0,0,2.8-1.2,10.91,10.91,0,0,1,5-4,5.87,5.87,0,0,1,2.3-.4h1.5l.6.1c.7.2,1.4.4,2,.6l.6.3.7.4a10.54,10.54,0,0,1,1.1.7l.2.1a2.46,2.46,0,0,0,3.3-.2,11.55,11.55,0,0,1,3.3-2.1,10.55,10.55,0,0,1,2.4-.6,6.72,6.72,0,0,1,4.3,1.2l.3.5.3.2c.2.2.5.4.7.6a8.64,8.64,0,0,1,1.3,1.4l.2.2.3.4a1.38,1.38,0,0,0,.3.4,2.48,2.48,0,0,0,2.8,1.2,10.63,10.63,0,0,1,6.6,0l.4.2a2.51,2.51,0,0,1,.7.4,2.09,2.09,0,0,0,.6.4l.1.1.1.1,1,1,.4.5.1.1.1.1a23.92,23.92,0,0,1,1.3,2.1,4.88,4.88,0,0,1,.3.7,2.39,2.39,0,0,0,.3.7c.2.6.4,1.3.6,1.9a2.46,2.46,0,0,0,2.4,1.8,20.67,20.67,0,0,1,4.3.2,12.09,12.09,0,0,1,1.8.5l.5.2a3,3,0,0,1,.8.4,3.11,3.11,0,0,1,.6.4l.2.2h0l.9.9.1.2a2.09,2.09,0,0,0,.4.6,1,1,0,0,1,.1.3c0,.1.2.4.2.5l.3,1.2v.2h0a2,2,0,0,0,.1.7Zm-68.4,70.9h-6.3l-3.5-20.5c-2-11.8-4-23.7-6.1-35.5-.3-1.6-.6-3.3-.8-4.9h16.1l1.3,19.8c.8,11.8,1.6,23.6,2.4,35.5.1,1.9.2,3.7.4,5.6Zm8.4,0c-.4-6.6-.9-13.2-1.3-19.8L78.66,132c-.1-1.9-.2-3.7-.4-5.6h7.5c.3,6.6.5,13.3.8,19.9.5,11.8.9,23.6,1.4,35.3.1,1.9.2,3.8.2,5.6Zm25-41-1.4,35.4c-.1,1.9-.2,3.8-.2,5.6H93.16c-.3-6.6-.5-13.2-.8-19.9-.5-11.8-.9-23.6-1.4-35.4-.1-1.9-.2-3.8-.2-5.6h17.3c-.3,6.6-.5,13.3-.8,19.9Zm9.6,35.4c-.1,1.9-.2,3.7-.4,5.6h-5.9c.3-6.6.5-13.2.8-19.9l1.4-35.4c.1-1.9.2-3.8.2-5.6h7.5c-.4,6.6-.9,13.2-1.3,19.8Zm20.6-36.2c-1.7,11.8-3.5,23.6-5.2,35.5l-.9,6.3h-9.8c.4-6.6.9-13.2,1.3-19.8.8-11.8,1.6-23.7,2.4-35.5l.4-5.6h14.7Zm39.8-121.2v77.9c0,3.3-.1,6.6,0,9.8h-30.2a10.87,10.87,0,0,0-4.6-7.2,15.46,15.46,0,0,0-8.6-2.3,19.44,19.44,0,0,0-3.2-5.8c-3.3-4.1-8.3-5.3-13.2-4.4a15.54,15.54,0,0,0-4.9-4.3,11.39,11.39,0,0,0-6.8-1.5,14.29,14.29,0,0,0-4.7,1.4V80.1a2.48,2.48,0,0,0-2.5-2.5H55.66V74L75,70.3h0L87,68c3.6-.7,7.4-1.2,11-2.1l.1.1a2.68,2.68,0,0,0,1.8-3.1l-3.7-19.5-.5-2.8a2.53,2.53,0,0,0-3.1-1.7l-9,1.7-16.9,3.2-4.2.8h0l-.5.1-6.3,1.2V16.8h121.6Z"/><path class="cls-4" d="M108.56,48.7V78.8l.3-.2L133.56,63l-.4-.2Z"/><path class="cls-3" d="M139.66,60.7l-28.4-16.2-4-2.3a2.42,2.42,0,0,0-3.4,1,2.66,2.66,0,0,0-.3,1.2V83.3a2.22,2.22,0,0,0,1,2,2.13,2.13,0,0,0,2.7.2l28.3-17.9,4.1-2.6a2.58,2.58,0,0,0,.9-3.5A2.36,2.36,0,0,0,139.66,60.7Zm-30.8,17.9-.3.2V48.7l24.6,14,.4.2Z"/><path class="cls-5" d="M51.76,124v-.1a23.19,23.19,0,0,1-1.7-11.6c1.2-6.7,7.8-10.3,14.1-10.8a12.09,12.09,0,0,1,9.4-8.8,22.09,22.09,0,0,1,6.8-.2c3.4-3.8,7.8-6.1,13-5.2a26.81,26.81,0,0,1,2.7.7V82.7H10.16l-1.3.3v60.6h46.2c-1.1-6.3-2.2-12.7-3.3-19ZM14.66,96h41.5c3.2,0,3.2,5,0,5H14.66C11.46,101,11.46,96,14.66,96Zm28.6,19.5H14.76c-3.2,0-3.2-5,0-5h28.5c3.2,0,3.2,5,0,5Z"/><path class="cls-5" d="M8.76,77.9a4.25,4.25,0,0,0,1.1-.2l6-1.1c.2-.6.4-1.1.6-1.6l6-17.7-10.2,1.9-6.7,1.3v.2C6.56,66.4,7.66,72.1,8.76,77.9Z"/><path class="cls-5" d="M77.76,64.8l10.1-1.9,6.7-1.3v-.2c-1.1-5.8-2.2-11.5-3.3-17.3l-1.1.2-7,1.3-.4,1.6Z"/><path class="cls-5" d="M53.46,67.9l6-17.7-13.4,2.5-.5,1.6-5,17.6,12.2-2.3Z"/><path class="cls-1" d="M27.46,57.7l-6,17.7,13.7-2.6.5-1.6,5-17.5-12.6,2.4Z"/><path class="cls-1" d="M64.46,50.7l-6,17.7,13.7-2.6.4-1.6,5-17.5-12.5,2.4Z"/><path class="cls-3" d="M14.66,101h41.5c3.2,0,3.2-5,0-5H14.66C11.46,96,11.46,101,14.66,101Z"/><path class="cls-3" d="M43.26,110.5H14.76c-3.2,0-3.2,5,0,5h28.5C46.46,115.5,46.46,110.5,43.26,110.5Z"/><path class="cls-6" d="M132.16,126.4h-6.6l-.4,5.6c-.8,11.8-1.6,23.6-2.4,35.5-.4,6.6-.9,13.2-1.3,19.8h9.8l.9-6.3c1.7-11.8,3.5-23.6,5.2-35.5l2.8-19.1Z"/><path class="cls-6" d="M74.56,146.2l-1.3-19.8H57.16c.3,1.6.6,3.3.8,4.9,2,11.8,4,23.7,6.1,35.5l3.5,20.4h9.7c-.1-1.9-.2-3.7-.4-5.6C76.16,169.9,75.36,158,74.56,146.2Z"/><path class="cls-6" d="M91,132c.5,11.8.9,23.6,1.4,35.4.3,6.6.5,13.2.8,19.9h12.4c.1-1.9.2-3.8.2-5.6l1.4-35.3c.3-6.6.5-13.3.8-19.9H90.76C90.86,128.3,91,130.2,91,132Z"/><path class="cls-1" d="M86.56,146.3c-.3-6.6-.5-13.3-.8-19.9h-7.5c.1,1.9.2,3.7.4,5.6l2.4,35.5c.4,6.6.9,13.2,1.3,19.8h5.9c-.1-1.9-.2-3.8-.2-5.6Z"/><path class="cls-1" d="M120.56,126.4h-7.5c-.1,1.9-.2,3.8-.2,5.6l-1.4,35.4c-.3,6.6-.5,13.2-.8,19.9h5.9c.1-1.9.2-3.7.4-5.6l2.4-35.5C119.66,139.6,120.16,133,120.56,126.4Z"/><path class="cls-7" d="M142.26,113.2h0V113l-.3-1.2a1.06,1.06,0,0,0-.2-.5.37.37,0,0,1-.1-.3,2.09,2.09,0,0,0-.4-.6l-.1-.2-.9-.9h0l-.2-.2c-.2-.1-.4-.3-.6-.4a5.94,5.94,0,0,0-.8-.4l-.5-.2a12.09,12.09,0,0,0-1.8-.5,20.67,20.67,0,0,0-4.3-.2,2.58,2.58,0,0,1-2.4-1.8,7,7,0,0,0-.6-1.9,4.88,4.88,0,0,0-.3-.7,4.88,4.88,0,0,1-.3-.7,23.92,23.92,0,0,0-1.3-2.1l-.1-.1-.1-.1-.4-.5-1-1-.1-.1-.1-.1a2.09,2.09,0,0,0-.6-.4,5.74,5.74,0,0,1-.7-.4l-.4-.2a10.63,10.63,0,0,0-6.6,0,2.48,2.48,0,0,1-2.8-1.2,1.38,1.38,0,0,0-.3-.4l-.3-.4-.2-.2a19.2,19.2,0,0,0-1.4-1.5c-.2-.2-.5-.4-.7-.6h-.3l-.5-.3a6.4,6.4,0,0,0-4.3-1.2,10.55,10.55,0,0,0-2.4.6,11.55,11.55,0,0,0-3.3,2.1,2.57,2.57,0,0,1-3.3.2l-.2-.1c-.4-.2-.7-.5-1.1-.7l-.7-.4-.6-.3a6.64,6.64,0,0,0-2-.6l-.6-.1h-1.5a8.52,8.52,0,0,0-2.3.4,10.91,10.91,0,0,0-5,4,2.62,2.62,0,0,1-2.8,1.2l-.4-.3-.6-.1h-.3a13.4,13.4,0,0,0-2-.1h-1.9l-1.3.3a1.42,1.42,0,0,0-.6.2L73,98c-.3.2-.7.3-1,.5l-.6.3-.1.1-.1.1-.5.5-.4.4a7.46,7.46,0,0,0-.7,1.2,13.85,13.85,0,0,0-1,3.3,2.46,2.46,0,0,1-2.4,1.8c-.7,0-1.5.1-2.2.1l-.5.1c-.3.1-.7.1-1,.2a15.46,15.46,0,0,0-2.3.7l-.5.2-.2.1c-.4.2-.7.4-1.1.6l-.6.4-.2.1c-.3.3-.7.6-1,.9l-.3.3c0,.1-.2.3-.3.4-.2.4-.5.8-.7,1.2h0c0,.1-.1.2-.1.4s-.2.5-.2.8a1.45,1.45,0,0,1-.2.7c-.1.2,0,.2,0,.2v.2a17.57,17.57,0,0,0,1,6.8c3.1-.1,6.2,0,9.2,0h76.1c0-.1.1-.3.1-.4.2-.7.4-1.3.6-2a5,5,0,0,0,.2-1.2c0-.2.1-.4.1-.6v-.2a20.9,20.9,0,0,0,.1-2.5C142.26,113.7,142.26,113.5,142.26,113.2Z"/><path class="cls-1" d="M429.56,157.5c-1.6,3-5.2,8.8-9.8,11.1-6.1,3.1-10.1.8-11.6-.5a11.87,11.87,0,0,0-2.3-1.6c-1-.6-2.4-1.5-4.1-2.5-1.9-1.2-1.6-6.5-1.6-6.5l-.3-23.9h-5.5l-.3,23.9s.3,5.4-1.6,6.5c-1.7,1-3.1,1.9-4.1,2.5a18.82,18.82,0,0,0-2.3,1.6c-1.6,1.3-5.5,3.6-11.6.5-4.6-2.3-8.2-8.1-9.9-11.1l-3.3,3.3a11.83,11.83,0,0,0-2.5,12.3l11.7,30h0a1.54,1.54,0,0,0,1.5,1h16.8a9.29,9.29,0,0,1-.5-2.9v-5.9a29.57,29.57,0,0,1-7.5-2.8c-3.8-2-7.1-5.1-8.4-9.2-.7-2.3,2.9-3.3,3.6-1,1,3.2,4,5.6,7,7.1a32.44,32.44,0,0,0,28.2,0c3-1.6,6-3.9,7-7.1.7-2.3,4.3-1.3,3.6,1-1.3,4.2-4.7,7.2-8.4,9.2a33.92,33.92,0,0,1-7.5,2.8v5.9a9.29,9.29,0,0,1-.5,2.9h16.7a1.64,1.64,0,0,0,1.5-1h0l11.7-30a11.86,11.86,0,0,0-2.6-12.3Zm-22.3,23.8a7.14,7.14,0,0,1-2,2.5l-4.8,4.2c-1.4,1.2-3,2.7-5,1.5a30,30,0,0,1-3.8-3.3,32.46,32.46,0,0,1-3.9-3.5,6.28,6.28,0,0,1-1.4-4,11.5,11.5,0,0,1,.2-3.2,5.84,5.84,0,0,1,5.9-4.3h9.7a5.89,5.89,0,0,1,5.7,6v.1A9.08,9.08,0,0,1,407.26,181.3Z"/><path class="cls-1" d="M380.36,158.9a3.3,3.3,0,1,0,3.3-3.3h0A3.21,3.21,0,0,0,380.36,158.9Z"/><path class="cls-3" d="M365.16,112.8a139.42,139.42,0,0,0-8.7,42.8.43.43,0,0,0,.4.4.37.37,0,0,0,.3-.1l16.8-17a3.74,3.74,0,0,0,.8-3.9L366,112.8c-.1-.2-.4-.4-.6-.3C365.36,112.6,365.26,112.7,365.16,112.8Z"/><path class="cls-3" d="M378.76,133l3.1-3.2a2.48,2.48,0,0,0,0-3.4h0l-12.1-11.7c-.1-.1-.2-.1-.2,0s-.1.1,0,.2l7.3,17.8a1.35,1.35,0,0,0,1.6.7A1.38,1.38,0,0,1,378.76,133Z"/><path class="cls-3" d="M409.16,132.4a6.36,6.36,0,0,0-4.5-1.9h-15.1a6.36,6.36,0,0,0-4.5,1.9l-25.8,26.3a15,15,0,0,0-3.2,15.5l11.7,30a4.64,4.64,0,0,0,4.3,3h18.5a8.82,8.82,0,0,0,12.4.7,4.62,4.62,0,0,0,.7-.7h18.5a4.64,4.64,0,0,0,4.3-3l11.7-30a15,15,0,0,0-3.2-15.5Zm4.7,26.5a3.3,3.3,0,1,1-3.3-3.3h0a3.27,3.27,0,0,1,3.3,3.3Zm-26.9,0a3.3,3.3,0,1,1-3.3-3.3h0a3.27,3.27,0,0,1,3.3,3.3Zm10.1,50.2a7.81,7.81,0,0,1-7.8-7.8v-5.6a42,42,0,0,0,6.2.8,1.27,1.27,0,0,0,.6.1h.6a19.07,19.07,0,0,0,.5,5.3h0a18.72,18.72,0,0,0,.5-5.3h.6a1.27,1.27,0,0,0,.6-.1,43.84,43.84,0,0,0,6.2-.8v5.6A8.12,8.12,0,0,1,397.06,209.1Zm38.3-36-11.7,30h0a1.54,1.54,0,0,1-1.5,1h-16.7a9.29,9.29,0,0,0,.5-2.9v-5.9a29.57,29.57,0,0,0,7.5-2.8c3.8-2,7.1-5.1,8.4-9.2.7-2.3-2.9-3.3-3.6-1-1,3.2-4,5.6-7,7.1a32.44,32.44,0,0,1-28.2,0c-3-1.5-6-3.9-7-7.1-.7-2.3-4.3-1.3-3.6,1,1.3,4.2,4.7,7.2,8.4,9.2a33.92,33.92,0,0,0,7.5,2.8v5.9a9.29,9.29,0,0,0,.5,2.9h-16.8a1.64,1.64,0,0,1-1.5-1h0l-11.7-30a11.83,11.83,0,0,1,2.5-12.3l3.3-3.3c1.6,3,5.2,8.8,9.9,11.1,6.1,3.1,10.1.8,11.6-.5a11.87,11.87,0,0,1,2.3-1.6c1-.6,2.4-1.5,4.1-2.5,1.9-1.2,1.6-6.5,1.6-6.5l.3-23.9H400l.2,23.9s-.3,5.4,1.6,6.5c1.7,1,3.1,1.9,4.1,2.5a18.82,18.82,0,0,1,2.3,1.6c1.6,1.3,5.5,3.6,11.6.5,4.6-2.3,8.2-8.1,9.8-11.1l3.2,3.3a12.07,12.07,0,0,1,2.6,12.3Z"/><path d="M402.06,172.5h-9.5c-2.7,0-4.9,1.7-5,4.5,0,2.1,0,4.1,1.8,5.6,1.2,1,2.4,2.1,3.6,3.1a26.06,26.06,0,0,0,3.1,2.7c1.6,1.1,3.1-.9,4.2-1.9,1.4-1.2,2.8-2.4,4.1-3.6a5.72,5.72,0,0,0,1.5-1.6,6.15,6.15,0,0,0,.7-3.5,5.06,5.06,0,0,0-.7-3.2A4.67,4.67,0,0,0,402.06,172.5Z"/><path class="cls-3" d="M402.06,171.2h-9.7a6,6,0,0,0-5.9,4.3,16.68,16.68,0,0,0-.2,3.2,6.28,6.28,0,0,0,1.4,4,32.46,32.46,0,0,0,3.9,3.5,39,39,0,0,0,3.8,3.3c2,1.2,3.5-.3,5-1.5l4.8-4.1a9.58,9.58,0,0,0,2-2.5,9,9,0,0,0,.5-4,5.73,5.73,0,0,0-5.6-6.2Zm3.8,10.1a5.72,5.72,0,0,1-1.5,1.6c-1.4,1.2-2.8,2.4-4.1,3.6-1.1.9-2.6,2.9-4.2,1.9a26.06,26.06,0,0,1-3.1-2.7c-1.2-1-2.4-2.1-3.6-3.1-1.7-1.5-1.8-3.5-1.8-5.6.1-2.8,2.3-4.5,5-4.5h9.5a4.53,4.53,0,0,1,3.8,2.1,8.35,8.35,0,0,1,0,6.7Z"/><path class="cls-8" d="M407.16,158.9a3.3,3.3,0,1,0,3.3-3.3h0A3.27,3.27,0,0,0,407.16,158.9Z"/><path class="cls-3" d="M437,155.9a.37.37,0,0,0,.6,0,.37.37,0,0,0,.1-.3,136.54,136.54,0,0,0-8.7-42.8c-.1-.2-.4-.4-.6-.3s-.2.1-.3.3l-8.8,22.2a3.7,3.7,0,0,0,.8,3.9Z"/><path class="cls-3" d="M424.36,114.6l-12.1,11.7a2.3,2.3,0,0,0,0,3.4h0l3.1,3.2a1.15,1.15,0,0,0,1.7,0c.1-.1.2-.3.3-.4l7.3-17.8c0-.1,0-.2-.1-.2a.31.31,0,0,0-.2.1Z"/><path class="cls-4" d="M404.86,195.7a42,42,0,0,1-6.2.8,1.27,1.27,0,0,1-.6.1h-.6a19.07,19.07,0,0,1-.5,5.3h0a18.72,18.72,0,0,1-.5-5.3h-.4a1.27,1.27,0,0,1-.6-.1,43.84,43.84,0,0,1-6.2-.8v5.6a7.8,7.8,0,0,0,15.6,0h0Z"/></svg>